<svg xmlns="http://www.w3.org/2000/svg" viewBox="0 0 300 200"><defs><style>.cls-1{fill:#4fbae7;}.cls-2{fill:#c3f1fa;}.cls-3{fill:#b9e4ee;}.cls-4{fill:#f5d200;}.cls-5{fill:#f8e212;}</style></defs><g id="background"><rect class="cls-1" width="300" height="200"/></g><g id="clouds"><g id="cloud_1" data-name="cloud 1"><path class="cls-2" d="M51.6,23.38S33.89,6.87,23.34,28.15c0,0-12.08-4.26-16.85,5.79,0,0-8.85-3.58-10.89,7,0,0-19.75,9.37-3.75,16.52,0,0,5.62,3.06,16.51,0,0,0,7.49,7,16.85,1.36,0,0,14.81,9,30.81,1,0,0,18.38,8,22-4.09,0,0,21.45-5.78,8.51-17.53,0,0-7.15-4.76-15-3.4,0,0-1.87-19.07-18.72-10.9"/></g><g id="cloud_2" data-name="cloud 2"><path class="cls-2" d="M284.32,76.79S266.83,73.34,270.53,85c0,0,5.87,11.23,22.6,2.81,0,0,3.7,8.93,17.61,1.66L309,64.91s-13.28-6.51-16.34,7.54C292.62,72.45,283.81,70.4,284.32,76.79Z"/></g><g id="cloud_3" data-name="cloud 3"><path class="cls-2" d="M261.21,161.81s9.83,9.06,20.56,0c0,0,19.78,8.93,29.61-2.81,0,0,6-7-5.1-8.55,0,0,4.85-7.79-1.15-10.34,0,0-5.24-2.81-8,2.42,0,0,1.27-11.49-6.71-10.72,0,0-8-.51-10,6.25,0,0-3.7-5.23-9.45-3.57,0,0-7-.13-7.27,6.38,0,0-9.19-4.47-11.49,2.56v5.37s-20-2.57-18,5.86c0,0-.38,7.66,13.28,8.68C247.43,163.34,256.49,165,261.21,161.81Z"/></g><g id="cloud_4" data-name="cloud 4"><path class="cls-2" d="M-14.4,168.83s5.49-12,26.93-6.38c0,0,18.64-36.26,40.09,5.1,0,0,8.81,2.3,11.23,10,0,0,11.11-3.83,13.41-.77,0,0,15.44-22.72,28.72,3.2,0,0,16-4.22,19,9.32,0,0,13.06.08,14.43,13.7s-60.6,17.36-60.6,17.36L-2.36,217.6Z"/><path class="cls-2" d="M180,200s-1.28-14.32,19.66-13.3c0,0,1.28-17.36,14-18.38,0,0,12.22-3.06,20.28,13a20.88,20.88,0,0,1,13,3.32s15.06-10.64,18.47,8c0,0,15.23,10,2.47,12.34s-84.43,5.45-84.43,5.45l-3.5-7.83Z"/></g><g id="cloud_5" data-name="cloud 5"><path class="cls-3" d="M-2.19,216.91s-5.45-23.14,22.64-31.48a33.24,33.24,0,0,1,25.87,9s13.79-10.22,27.23-4.26c0,0,11.24,1.36,16.68,15.15,0,0,12.43-1.36,16.51,1.87,0,0,6-11.4,20.77-10.38,0,0,14.81,3.06,15.83,10.55,0,0,13.83-4.21,22.51,2.68s19.53,4.73,19.53,4.73l24.26,12.51,17.1,4.08s3.07-30.64,36-17.1c0,0-6.31-10.73,10.76-19.92,0,0,5-19.66,26.5-15.06l14.83,14L301.3,244.91l-174.64,14.3L7.17,248.74Z"/></g></g><g id="sun"><polygon class="cls-4" points="96.53 65.08 116.45 63.21 110.49 43.98 129.04 49.6 131.09 29.34 146.75 42.28 155.25 25.6 165.13 41.77 180.45 30.02 182.26 49.09 200.36 43.81 195.94 61.68 215 65.08 203.25 79.89 220.28 89.43 203.77 98.79 214.83 113.94 195.25 116.66 201.55 134.7 182.26 129.25 180.11 148.32 165.3 136.91 156.62 152.57 145.89 137.09 131.43 148.66 129.72 129.43 109.81 135.04 115.6 115.98 95.85 113.94 109.13 98.79 91.6 89.08 106.4 80.75 96.53 65.08"/><ellipse class="cls-5" cx="157.13" cy="87.72" rx="37.11" ry="35.57"/></g></svg>