<svg id="clouds" xmlns="http://www.w3.org/2000/svg" viewBox="0 0 300 200"><defs><style>.cls-1{fill:#64abdb;}.cls-2{fill:#75b5e4;}.cls-3{fill:#86c1eb;}.cls-4{fill:#93c9f0;}</style></defs><g id="cloud_1" data-name="cloud 1"><path class="cls-1" d="M-35.21-42.83,124.62-58.66,300.79-23.43s45.44,264,45.44,261.45-276.76-22-329.87-25.53S-35.21-40.28-35.21-40.28Z"/></g><g id="cloud_2" data-name="cloud 2"><path class="cls-2" d="M-25.51,60.83,6.66-44.87l123.57,14.3L126.66-4s17.87-4.6,39.83,26c0,0,17.87-12.76,43.91,9.7,0,0,12.77-30.12,43.41-26,0,0,31.66,3.58,39.83,36.26,0,0,25,.51,36.76,29.61s-3.06,96.51-3.06,96.51l-349.28-8.17Z"/></g><g id="cloud_3" data-name="cloud 3"><path class="cls-3" d="M-33.17,83.81s20.94-30.13,49-19.41c0,0,24,6.86,31.15,35.6,0,0,10.21-5.47,15.32,11.38,0,0,23-14.29,37.28-7.15,0,0,3.57-19.4,19.4-10.72,0,0,10.21-28.08,44.43-22.47,0,0,28.59,5.62,35.23,40.34,0,0,35.74-2,47.49,33.19,0,0,29.06-23.46,53.85-19.13,0,0,14.06-4.35,36.53,21.18l-5.62,110.29-398.8-3.57Z"/></g><g id="cloud_4" data-name="cloud 4"><path class="cls-4" d="M-41.34,214l8.68-37.28s30.64-9.19,47-2.55c0,0,19.91-35.74,63.32-35.74,0,0,44.93,3.06,45.45,32.17,0,0,17.06-14.3,26.91,0,0,0,57.34-12.77,51.21,52.59Z"/></g></svg>