<svg xmlns="http://www.w3.org/2000/svg" viewBox="0 0 300 200"><defs><style>.cls-1{fill:#d9fcf5;}.cls-2{fill:#a5e9e4;}.cls-3{fill:#8bd8d4;}.cls-4{fill:#b7ffec;}.cls-5{fill:#b7fffc;}.cls-6{fill:#5ca8a4;}.cls-7{fill:#3a9395;}.cls-8{fill:#35939a;}.cls-9{fill:#2c7a7e;}</style></defs><g id="sky"><rect class="cls-1" x="-99.55" y="-51.51" width="530.04" height="170.04"/></g><g id="hills_1" data-name="hills 1"><path class="cls-2" d="M-21.94,73.09,0,51.13s2.06,3.06,18.91-6.39c0,0,18.9-13,42.39-3.83,0,0,35.74,4.38,42.38,14.45,0,0,37.28,16.7,53.11,17.73,0,0,19.91,2,29.1-5.11,0,0,31.15-19.41,53.11-16.85,0,0,59.19,10.77,61,4.36s29.89,27.3,29.89,27.3l-13.78,47.49L-28.06,119.55Z"/></g><g id="hills_2" data-name="hills 2"><path class="cls-3" d="M-40.83,139-6,93.5s38,5.61,67.6-2.81c0,0,42.63-2.57,68.1,11.63,0,0,96.18-.4,115.93-9.38,0,0,32.23-16.84,65-16.28l22.88,67.91Z"/></g><g id="tree_5" data-name="tree 5"><path class="cls-4" d="M275.59,129.22s5-6.74,5.07-12.28l-2.54,2.12s3.56-11.82,3.56-17.55l-1.47,1.76,3.23-12.74L288,103l-1.84-1.11,5.63,16.44-2.52-1.2s-.25,10.16,2.52,13.58Z"/></g><g id="tree_4" data-name="tree 4"><path class="cls-2" d="M267.26,133.68s6.63-8.68,6.12-13.28c0,0-2.86,3.75-3.05,2l4.76-15.32-2.22.85a50.43,50.43,0,0,0,4.6-17.7l4.93,17.36-1.53-.85s2.56,13.61,4.43,15.06l-2.47-.85,5.7,13.11Z"/><path class="cls-5" d="M244.87,131s9.59-12.53,8.85-19.16c0,0-4.14,5.4-4.4,3l6.86-22.12L253,93.92a73,73,0,0,0,6.64-25.56l7.12,25.07-2.21-1.23s3.69,19.66,6.39,21.75l-3.56-1.23,8.23,18.92Z"/></g><g id="hills_3" data-name="hills 3"><path class="cls-6" d="M300,200V105.26s-36.49,25.53-75.81,21.44c0,0-24.51.51-47,6.13,0,0-19.91-5.11-34.72-1.53,0,0-12.77,6.13-42.89,5.1,0,0-49.58-9.19-99.6,1S-27.55,200-27.55,200L209,224.23Z"/></g><g id="tree_2" data-name="tree 2"><path class="cls-7" d="M-14,151.72S-.28,133.09,0,117.77l-7,5.87S2.83,91,2.83,75.13L-1.26,80,7.68,44.74,20.19,79.21l-5.1-3.06L30.66,121.6l-7-3.32s-.68,28.08,7,37.53Z"/></g><g id="tree_1" data-name="tree 1"><path class="cls-8" d="M23.68,169.09S37,151.72,35.94,142.53c0,0-5.74,7.49-6.1,4.09L39.34,116l-4.43,1.7s8.18-16.34,9.2-35.4L54,117l-3.07-1.7s5.11,27.23,8.86,30.13l-4.94-1.71,11.4,26.22Z"/></g><g id="hills_4" data-name="hills 4"><path class="cls-9" d="M-38.79,212.49l15.32-70S59.26,165,135.85,175.21c0,0,48-11.23,64.34-2,0,0,22.47,1,53.62,24,0,0,26-9.7,48.51-.51s24,38.3,24,38.3Z"/></g><g id="tree_3" data-name="tree 3"><path class="cls-9" d="M5.84,161.85s13.27-17.36,12.25-26.55c0,0-5.73,7.49-6.1,4.08l9.51-30.64-4.43,1.71S25.24,94.11,26.26,75l9.87,34.73-3.06-1.71s5.11,27.24,8.85,30.13L37,136.49l11.4,26.21Z"/></g></svg>