<svg id="clouds" xmlns="http://www.w3.org/2000/svg" viewBox="0 0 300 200"><defs><style>.cls-1{fill:#7ba4cb;}.cls-2,.cls-5,.cls-8{fill:#b5dcfa;stroke:#c1e9ec;stroke-miterlimit:10;}.cls-2{stroke-width:2px;}.cls-3{fill:#6a8fb0;}.cls-4{font-size:12px;font-family:MyriadPro-Regular, Myriad Pro;}.cls-6{fill:#5e7f9e;}.cls-7{fill:#b6ddf7;}.cls-8{stroke-width:3px;}.cls-9{fill:#9dbcdf;}.cls-10{fill:#b4cfeb;}</style></defs><g id="cloud_4" data-name="cloud 4"><ellipse class="cls-1" cx="155.77" cy="176.23" rx="225.19" ry="62.3"/></g><g id="rain_3" data-name="rain 3"><line class="cls-2" x1="219.29" y1="224.67" x2="300" y2="63.04"/></g><g id="cloud_3" data-name="cloud 3"><path class="cls-3" d="M312.53,69.68c-15.33,0-28.62,5.7-35.28,14C264.05,76.42,247.3,72,229.07,72,208,72,188.92,77.88,175,87.34,165.63,72.88,147.16,63,125.91,63,96.43,63,72.31,82,70.39,105.91A64.05,64.05,0,0,0,40,98.42a65.26,65.26,0,0,0-23.39,4.26c-4.7-10.77-15.93-18.36-29-18.36-17.34,0-31.4,13.26-31.4,29.61,0,15.35,12.37,28,28.21,29.47,0,.33,0,.65,0,1,0,25.38,24.92,46,55.66,46,19.17,0,36.07-8,46.08-20.18a17.69,17.69,0,1,0,31.48-15.73,66.23,66.23,0,0,0,8.4.53,63.56,63.56,0,0,0,32.33-8.57c11.83,18.94,39.08,32.2,70.83,32.2,42.58,0,77.11-23.85,77.11-53.27a35.1,35.1,0,0,0-.2-3.57,61.2,61.2,0,0,0,6.55.35c22,0,39.83-11.73,39.83-26.21S334.53,69.68,312.53,69.68ZM95.45,147.76a2.83,2.83,0,0,1,0-.29l.29.15Z"/><text class="cls-4" transform="translate(110.51 71.25)">cloud 1</text></g><g id="rain_2" data-name="rain 2"><line class="cls-5" x1="133.87" y1="183.35" x2="214.57" y2="21.72"/><line class="cls-2" x1="195.06" y1="190.79" x2="275.77" y2="29.17"/></g><g id="cloud_2" data-name="cloud 2"><path class="cls-6" d="M270.66-16.45A55.74,55.74,0,0,0,227.51,3.47a55.74,55.74,0,0,0-43.15-19.92c-29.33,0-53.24,21.75-54.48,49A42.24,42.24,0,0,0,123,32,40.42,40.42,0,0,0,85.15,57.43c-8-13.37-25.37-22.64-45.49-22.64-27.74,0-50.23,17.6-50.23,39.32s22.49,39.32,50.23,39.32C61,113.43,79.24,103,86.51,88.29a41,41,0,0,0,68.54,7c-.07,1.06-.12,2.12-.12,3.2,0,28.29,24.42,51.23,54.55,51.23S264,126.74,264,98.45a48.39,48.39,0,0,0-1.78-13,58.25,58.25,0,0,0,8.42.61c30.12,0,54.54-22.94,54.54-51.24S300.78-16.45,270.66-16.45Z"/></g><g id="rain_1" data-name="rain 1"><line class="cls-2" x1="-40.35" y1="228.28" x2="40.35" y2="66.65"/><line class="cls-5" x1="35.63" y1="212.27" x2="116.34" y2="50.64"/><line class="cls-7" x1="154.32" y1="29.32" x2="98.66" y2="140.79"/><line class="cls-8" x1="126.49" y1="218.03" x2="207.2" y2="56.4"/></g><g id="cloud_1" data-name="cloud 1"><ellipse class="cls-9" cx="232.03" cy="6.02" rx="86.8" ry="72.85"/><path class="cls-9" d="M105.55,43.81A22.35,22.35,0,0,0,93.1,47.54c0-.36,0-.72,0-1.09,0-16.49-9.49-31-23.73-39.06A32,32,0,0,0,72-5.21C72-27.4,48.78-45.38,20.11-45.38s-51.92,18-51.92,40.17c0,15.45,11.29,28.86,27.82,35.58A42.44,42.44,0,0,0-7.15,46.45c0,25.38,22.45,46,50.14,46,18.38,0,34.44-9.06,43.17-22.58,3.1,6.93,10.61,11.82,19.39,11.82,11.57,0,20.94-8.47,20.94-18.92S117.12,43.81,105.55,43.81Z"/><ellipse class="cls-10" cx="128.87" cy="-16.45" rx="78.64" ry="72.85"/><path class="cls-9" d="M397,51.41a22.4,22.4,0,0,0-12.46,3.73c0-.36,0-.72,0-1.09,0-16.49-9.49-31-23.73-39.06a32,32,0,0,0,2.62-12.6c0-22.19-23.25-40.17-51.92-40.17s-51.91,18-51.91,40.17c0,15.45,11.28,28.86,27.82,35.58a42.44,42.44,0,0,0-3.16,16.08c0,25.38,22.44,46,50.13,46,18.38,0,34.44-9.06,43.17-22.58,3.11,6.93,10.62,11.82,19.4,11.82,11.56,0,20.93-8.47,20.93-18.92S408.57,51.41,397,51.41Z"/></g></svg>