<svg xmlns="http://www.w3.org/2000/svg" xmlns:xlink="http://www.w3.org/1999/xlink" viewBox="0 0 300 200"><defs><style>.cls-1{fill:#d8d7f7;}.cls-2{fill:#cacaf3;}.cls-3{fill:#a9b5da;}.cls-4{fill:#a7b3d8;}.cls-5{fill:#a6b0d2;}.cls-6{fill:#e9ecfa;}.cls-7{fill:#fcfbfe;}.cls-8{fill:#fdffff;}</style></defs><g id="image"><image width="313" height="200" transform="translate(-13.54 -11.19) scale(1.11)" xlink:href="../../../../../../Desktop/snow-falls-in-winter-wonderland-free-vector.jpg"/></g><g id="background"><g id="sky"><rect class="cls-1" x="-12.18" y="-11.19" width="348.03" height="222.38"/></g></g><g id="trees"><g id="tree_9" data-name="tree 9"><path class="cls-2" d="M41.54,100s2.24,18.55,7.33,23.18c0,0-7-2.09,2.09,8.83l6.13,14.36-31.86,3,9.58-16.6s-.15-2.7-3.29-1.2c0,0,10.77-11.67,5.23-11.14C36.75,120.42,42.73,103.59,41.54,100Z"/></g><g id="tree_1" data-name="tree 1"><path class="cls-3" d="M-12.06,147l28.93,11.23S42.74,147.64,42.74,147s-7.83-17-7.83-17-.68-2.39,4.77,0L24.36,90.79s-.34-3.07,5.45,2l-11.24-30s0-.68,3.41,2.73-6.13-21.79-6.64-28.94-9,26.21-9,26.21l3.4-1.36L1.55,87.72,6,83.64s-11.8,23.49-15.66,25.87c0,0,4.08-.68,4.08.34s-6.46,9.87-6.46,9.87l5.44-.68-6.92,17Z"/></g><g id="tree_4" data-name="tree 4"><path class="cls-2" d="M266.83,78.19s3.83,31.66,12.51,39.58c0,0-12-3.58,3.57,15.06l10.47,24.51L239,162.45l16.34-28.34s-.25-4.6-5.62-2.05c0,0,18.39-19.91,8.94-19C258.66,113,268.87,84.32,266.83,78.19Z"/></g><g id="tree_2" data-name="tree 2"><path class="cls-4" d="M332.79,145.94c-5.11-6.47-7.66-15.32-7.66-15.32-2.39-8.17-4.43-9.71-4.43-9.71a20.72,20.72,0,0,1-7.49-5.27c2.05,2.55,8.85,1.7,8.85,1.7-4.76-7.66-6.12-17.34-6.12-17.34,4.08,2.4,5.1,1.68,5.1,1.68-4.08-3.74-12.93-30.3-12.93-30.3-.34-.85,4.59,1.19,4.59,1.19-5.79-5.1-9.19-29.95-9.19-29.95-.34,29.1-12.17,48.08-12.17,48.08,8.94-.76,4.6-.76,4.6-.76A47.67,47.67,0,0,0,292.28,100c7.49-5.09,7.72-3.08,7.72-3.08-5.21,1-10.79,10.55-10.79,10.55-2.38,8.85-10.89,12.25-7.49,14a6.53,6.53,0,0,0,6.13,0L278,132.66h5.11l-7.49,16h3.06v9.53c18.89-2.21,50,6.81,55-11.74"/></g><g id="tree_3" data-name="tree 3"><path class="cls-5" d="M47.77,147.89H83.26s-6.13-11.74-4.86-15.06h3.07s-4.85-4.6-5.11-8.68-8.17-8.43-6.38-13.53c0,0,4.08,1,3.83-1.53,0,0-7.15-10.47-8.3-30.9,0,0-3.45,14.81-5.49,16.34,0,0,1.53,7.66-4.85,18.51,0,0,12.26-3.19-6.38,23.87C48.79,136.91,53.64,135.89,47.77,147.89Z"/></g><g id="tree_6" data-name="tree 6"><path class="cls-2" d="M229.81,122.83s1.91,15.83,6.25,19.78c0,0-6-1.78,1.79,7.54l5.24,12.25L215.89,165l8.17-14.17s-.12-2.29-2.8-1c0,0,9.19-10,4.46-9.51C225.72,140.25,230.83,125.89,229.81,122.83Z"/></g><g id="tree_5" data-name="tree 5"><path class="cls-3" d="M233,164.83l12.28,4.7s11-4.41,11-4.7-3.32-7.12-3.32-7.12-.29-1,2,0l-6.5-16.39s-.14-1.28,2.31.86l-4.76-12.54s0-.29,1.44,1.14-2.6-9.12-2.82-12.11-3.82,11-3.82,11l1.44-.57-3.47,11,1.88-1.71s-5,9.83-6.64,10.83c0,0,1.73-.29,1.73.14s-2.75,4.13-2.75,4.13l2.32-.28-2.94,7.12Z"/></g><g id="tree_7" data-name="tree 7"><path class="cls-2" d="M202.05,133.75s-1.28,10.63-4.2,13.29c0,0,4-1.2-1.2,5.05l-3.52,8.24L211.4,162l-5.49-9.52s.09-1.54,1.89-.68c0,0-6.18-6.69-3-6.39C204.8,145.45,201.37,135.8,202.05,133.75Z"/></g><g id="tree_8" data-name="tree 8"><path class="cls-4" d="M207,161a16.32,16.32,0,0,0,2.43-4.85c.75-2.59,1.4-3.08,1.4-3.08a6.44,6.44,0,0,0,2.37-1.67c-.65.81-2.8.54-2.8.54a16.17,16.17,0,0,0,1.94-5.49c-1.3.76-1.62.53-1.62.53,1.3-1.19,4.1-9.6,4.1-9.6.11-.26-1.46.38-1.46.38,1.84-1.62,2.91-9.49,2.91-9.49a31.72,31.72,0,0,0,3.86,15.23c-2.83-.24-1.46-.24-1.46-.24a14.9,14.9,0,0,1,1.16,3.19c-2.37-1.61-2.44-1-2.44-1,1.65.33,3.41,3.34,3.41,3.34.76,2.81,3.45,3.89,2.37,4.42a2.07,2.07,0,0,1-1.94,0l3.13,3.56h-1.62l2.38,5.07h-1v3c-6-.7-15.84,2.15-17.41-3.72"/></g></g><g id="snow"><g id="snow_pile" data-name="snow pile"><path class="cls-6" d="M264.45,162.45s18.64-19.66,35.23-20.17c0,0,26-4.85,31.66,5.61l2.3,13.28Z"/></g><g id="lying_snow" data-name="lying snow"><path class="cls-7" d="M-13.54,211.19V147s59.69-10.56,170.33,7.49,176.68-17.71,176.34-6.81,1.36,63.55,1.36,63.55"/></g><g id="falling_snow" data-name="falling snow"><circle class="cls-8" cx="84.66" cy="22.66" r="3.19"/><circle class="cls-8" cx="151.46" cy="48.41" r="3.73"/><circle class="cls-8" cx="126.74" cy="38.57" r="3.19"/><circle class="cls-8" cx="132.7" cy="58.57" r="1.26"/><circle class="cls-8" cx="141.3" cy="62.23" r="1.6"/><circle class="cls-8" cx="51.23" cy="70.99" r="2.15"/><circle class="cls-8" cx="71.81" cy="73.58" r="1.9"/><circle class="cls-8" cx="3.99" cy="3.2" r="4.44"/><circle class="cls-8" cx="188.83" cy="32.07" r="3.19"/><ellipse class="cls-8" cx="213.31" cy="64.27" rx="4.06" ry="4.24"/><circle class="cls-8" cx="288.43" cy="82.12" r="4.95"/><circle class="cls-8" cx="168.46" cy="113.27" r="4.44"/><circle class="cls-8" cx="79.88" cy="55.06" r="1.83"/><circle class="cls-8" cx="56.14" cy="53.2" r="1.86"/><circle class="cls-8" cx="39.22" cy="44.42" r="1.23"/><circle class="cls-8" cx="65.94" cy="37.63" r="1.23"/><circle class="cls-8" cx="27.4" cy="18.91" r="1.23"/><circle class="cls-8" cx="103.16" cy="85.49" r="1.23"/><circle class="cls-8" cx="97.59" cy="59.22" r="1.23"/><circle class="cls-8" cx="112.02" cy="48.8" r="1.23"/><circle class="cls-8" cx="118.94" cy="27.53" r="1.23"/><circle class="cls-8" cx="90.19" cy="35.1" r="1.81"/><circle class="cls-8" cx="41.26" cy="-0.97" r="1.23"/><circle class="cls-8" cx="27.4" cy="68.84" r="4.92"/><circle class="cls-8" cx="116.11" cy="117.7" r="2.38"/><circle class="cls-8" cx="127.19" cy="105.26" r="1.23"/><circle class="cls-8" cx="86.13" cy="107.72" r="1.23"/><circle class="cls-8" cx="258.74" cy="104.02" r="1.23"/><circle class="cls-8" cx="218.61" cy="93.64" r="1.23"/><circle class="cls-8" cx="259.6" cy="51.04" r="1.23"/><circle class="cls-8" cx="225.09" cy="16.57" r="1.23"/><circle class="cls-8" cx="272.87" cy="6.62" r="2.94"/><circle class="cls-8" cx="162.15" cy="84.35" r="1.87"/><circle class="cls-8" cx="162.86" cy="20.76" r="2.82"/><circle class="cls-8" cx="278.8" cy="37.43" r="2.99"/><circle class="cls-8" cx="137.89" cy="132.19" r="1.23"/><circle class="cls-8" cx="194.67" cy="80.27" r="1.54"/><circle class="cls-8" cx="233.89" cy="32.11" r="3.47"/></g></g></svg>